<svg width="38" height="39" viewBox="0 0 38 39" fill="none" xmlns="http://www.w3.org/2000/svg">
<path d="M37.9997 31.8653L36.3392 29.8751C37.2136 29.6723 37.7471 29.1668 37.7471 28.2871C37.7471 27.2932 36.9111 26.7953 35.8521 26.7953H32.5333V31.8653H33.4133V29.947H35.3871L36.9077 31.8653H37.9997ZM33.4133 27.5822H35.8764C36.4831 27.5822 36.8453 27.8689 36.8453 28.3489C36.8453 28.8418 36.465 29.1602 35.8764 29.1602H33.4133V27.5822Z" fill="#050033"/>
<path d="M2.59991 26.7953L0.00423325 31.8653H0.999631L1.55328 30.7362H4.50927L5.06292 31.8653H6.081L3.48532 26.7953H2.59991ZM1.9392 29.9494L3.03134 27.722L4.12347 29.9494H1.9392Z" fill="#050033"/>
<path d="M10.736 27.4622C11.5636 27.4622 12.2458 27.7767 12.5957 28.329L13.3055 27.8482C12.8085 27.1462 11.9292 26.6608 10.736 26.6608C8.80719 26.6608 7.69913 27.9291 7.69913 29.3303C7.69913 30.7315 8.80719 32 10.736 32C11.9294 32 12.8085 31.5147 13.3055 30.8127L12.5957 30.3319C12.2458 30.8842 11.5636 31.1986 10.736 31.1986C9.43923 31.1986 8.60136 30.4653 8.60136 29.3305C8.60136 28.1956 9.43923 27.4622 10.736 27.4622Z" fill="#050033"/>
<path d="M18.7279 27.4622C19.5554 27.4622 20.2377 27.7767 20.5876 28.329L21.2973 27.8482C20.8004 27.1462 19.9211 26.6608 18.7279 26.6608C16.799 26.6608 15.691 27.9291 15.691 29.3303C15.691 30.7315 16.799 32 18.7279 32C19.9212 32 20.8004 31.5147 21.2973 30.8127L20.5876 30.3319C20.2377 30.8842 19.5554 31.1986 18.7279 31.1986C17.4311 31.1986 16.5932 30.4653 16.5932 29.3305C16.5932 28.1956 17.4311 27.4622 18.7279 27.4622Z" fill="#050033"/>
<path d="M26.7208 26.6608C24.7919 26.6608 23.6839 27.9291 23.6839 29.3303C23.6839 30.7315 24.7919 31.9999 26.7208 31.9999C28.6496 31.9999 29.7577 30.7315 29.7577 29.3303C29.7577 27.9291 28.6496 26.6608 26.7208 26.6608ZM26.7208 31.2072C25.424 31.2072 24.5861 30.4705 24.5861 29.3303C24.5861 28.1901 25.424 27.4534 26.7208 27.4534C28.0176 27.4534 28.8555 28.1903 28.8555 29.3303C28.8555 30.4704 28.0176 31.2072 26.7208 31.2072Z" fill="#050033"/>
<path d="M29.5938 22.5944H26.3473C24.9793 22.5944 24.2908 22.2917 23.7891 21.6319C23.2547 20.929 23.2547 19.8581 23.2547 18.8433V0.0096291H27.4283V19.4476C27.4283 20.9863 27.5996 22.0875 29.5939 22.5263V22.5945L29.5938 22.5944Z" fill="#050033"/>
<path d="M21.152 22.5912H15.9292L12.09 14.5315C9.9944 15.6791 8.79891 18.3367 6.67391 20.092C5.5912 20.9863 4.32395 21.7838 2.7447 22.3231C2.02982 22.5672 0.815335 22.8829 0.358166 22.9286C0.167371 22.9476 0.033037 22.9399 0.00461532 22.8704C-0.0173064 22.8168 0.0353313 22.7757 0.238872 22.6767C0.470961 22.5637 1.43003 22.1639 2.03097 21.7419C2.78115 21.2153 3.21092 20.6455 3.24469 20.206C3.03822 19.4736 1.56921 17.8478 3.072 14.8647C3.61124 13.7944 4.07759 13.0241 4.41164 12.2499C4.7954 11.3606 5.06687 10.1078 5.15927 9.1767C5.16462 9.12239 5.17431 9.12508 5.20375 9.15526C5.93558 9.90041 8.77176 12.8421 8.36175 15.7663C9.30476 15.4013 10.9404 14.293 11.6946 13.7016C12.4907 13.0773 13.0095 12.426 13.8527 12.4115C14.6079 12.3986 14.6729 12.7622 15.2743 12.8421C15.4233 12.8619 15.6438 12.8328 15.7578 12.7765C15.804 12.7538 15.7927 12.703 15.7228 12.6864C14.9027 12.4915 14.7063 11.8183 13.6462 11.8183C12.6952 11.8183 11.9383 12.7003 11.3901 13.0624L8.70816 7.43218C7.58646 5.07744 7.92892 3.36617 10.3908 0L21.152 22.5912Z" fill="#050033"/>
<path d="M37.9999 22.5944H34.7534C33.3854 22.5944 32.6969 22.2917 32.1952 21.6319C31.6608 20.929 31.6608 19.8581 31.6608 18.8433V0.0096291H35.8343V19.4476C35.8343 20.9863 36.0056 22.0875 38 22.5263V22.5945L37.9999 22.5944Z" fill="#050033"/>
<path d="M0.803001 38V34.3636H3.16806V34.9158H1.46174V35.9031H3.04554V36.4553H1.46174V37.4478H3.18226V38H0.803001ZM4.69054 34.3636L5.49132 35.6953H5.51973L6.32406 34.3636H7.07512L5.95474 36.1818L7.09288 38H6.32939L5.51973 36.6772H5.49132L4.68166 38H3.92172L5.07051 36.1818L3.93592 34.3636H4.69054ZM7.89226 38V34.3636H9.25589C9.53525 34.3636 9.76963 34.4157 9.95902 34.5199C10.1496 34.6241 10.2934 34.7673 10.3905 34.9496C10.4887 35.1307 10.5379 35.3366 10.5379 35.5675C10.5379 35.8007 10.4887 36.0078 10.3905 36.1889C10.2922 36.37 10.1472 36.5127 9.95547 36.6168C9.76371 36.7198 9.52756 36.7713 9.24702 36.7713H8.34325V36.2298H9.15824C9.32159 36.2298 9.45535 36.2013 9.55952 36.1445C9.66368 36.0877 9.74063 36.0096 9.79034 35.9102C9.84124 35.8107 9.86669 35.6965 9.86669 35.5675C9.86669 35.4384 9.84124 35.3248 9.79034 35.2266C9.74063 35.1283 9.66309 35.052 9.55774 34.9975C9.45357 34.9419 9.31922 34.9141 9.15469 34.9141H8.55099V38H7.89226ZM11.41 38V34.3636H13.7751V34.9158H12.0688V35.9031H13.6526V36.4553H12.0688V37.4478H13.7893V38H11.41ZM14.7471 38V34.3636H16.1108C16.3901 34.3636 16.6245 34.4122 16.8139 34.5092C17.0045 34.6063 17.1483 34.7424 17.2454 34.9176C17.3436 35.0916 17.3927 35.2946 17.3927 35.5266C17.3927 35.7598 17.343 35.9622 17.2436 36.1339C17.1453 36.3043 17.0003 36.4363 16.8086 36.5298C16.6168 36.6222 16.3813 36.6683 16.1019 36.6683H15.1307V36.1214H16.0131C16.1765 36.1214 16.3102 36.099 16.4144 36.054C16.5186 36.0078 16.5955 35.9409 16.6452 35.8533C16.6961 35.7646 16.7216 35.6557 16.7216 35.5266C16.7216 35.3976 16.6961 35.2875 16.6452 35.1964C16.5943 35.104 16.5168 35.0342 16.4126 34.9869C16.3085 34.9383 16.1741 34.9141 16.0096 34.9141H15.4059V38H14.7471ZM16.6257 36.3523L17.5259 38H16.7908L15.9066 36.3523H16.6257ZM18.9578 34.3636V38H18.2991V34.3636H18.9578ZM19.9712 38V34.3636H22.3362V34.9158H20.6299V35.9031H22.2137V36.4553H20.6299V37.4478H22.3504V38H19.9712ZM26.2966 34.3636V38H25.7106L23.9972 35.5231H23.967V38H23.3083V34.3636H23.8978L25.6094 36.8423H25.6414V34.3636H26.2966ZM30.4269 35.5906H29.7628C29.7439 35.4817 29.709 35.3852 29.6581 35.3011C29.6072 35.2159 29.5439 35.1437 29.4681 35.0845C29.3923 35.0253 29.3059 34.9809 29.2089 34.9513C29.113 34.9206 29.0094 34.9052 28.8981 34.9052C28.7005 34.9052 28.5253 34.9549 28.3726 35.0543C28.2199 35.1526 28.1003 35.297 28.0139 35.4876C27.9275 35.677 27.8843 35.9084 27.8843 36.1818C27.8843 36.46 27.9275 36.6944 28.0139 36.8849C28.1015 37.0743 28.2211 37.2176 28.3726 37.3146C28.5253 37.4105 28.6999 37.4585 28.8964 37.4585C29.0053 37.4585 29.1071 37.4442 29.2018 37.4158C29.2976 37.3862 29.3835 37.343 29.4592 37.2862C29.5362 37.2294 29.6007 37.1596 29.6528 37.0767C29.706 36.9938 29.7427 36.8991 29.7628 36.7926L30.4269 36.7962C30.402 36.969 30.3482 37.1312 30.2653 37.2827C30.1836 37.4342 30.0765 37.5679 29.9439 37.6839C29.8114 37.7988 29.6563 37.8887 29.4787 37.9538C29.3012 38.0178 29.1041 38.0497 28.8875 38.0497C28.5679 38.0497 28.2826 37.9757 28.0317 37.8278C27.7807 37.6798 27.583 37.4661 27.4386 37.1868C27.2942 36.9074 27.222 36.5724 27.222 36.1818C27.222 35.79 27.2948 35.455 27.4404 35.1768C27.586 34.8975 27.7843 34.6838 28.0352 34.5359C28.2862 34.3879 28.5702 34.3139 28.8875 34.3139C29.0899 34.3139 29.2781 34.3423 29.4521 34.3991C29.6261 34.456 29.7812 34.5394 29.9173 34.6495C30.0534 34.7584 30.1653 34.8922 30.2529 35.0508C30.3417 35.2082 30.3997 35.3881 30.4269 35.5906ZM31.3301 38V34.3636H33.6952V34.9158H31.9889V35.9031H33.5727V36.4553H31.9889V37.4478H33.7094V38H31.3301ZM36.6435 35.3633C36.6269 35.2082 36.5571 35.0875 36.4339 35.0011C36.312 34.9147 36.1534 34.8714 35.9581 34.8714C35.8208 34.8714 35.703 34.8922 35.6048 34.9336C35.5065 34.975 35.4313 35.0312 35.3793 35.1023C35.3272 35.1733 35.3005 35.2544 35.2994 35.3455C35.2994 35.4213 35.3165 35.487 35.3509 35.5426C35.3864 35.5982 35.4343 35.6456 35.4947 35.6847C35.555 35.7225 35.6219 35.7545 35.6953 35.7805C35.7687 35.8066 35.8427 35.8285 35.9173 35.8462L36.2582 35.9315C36.3955 35.9634 36.5275 36.0066 36.6541 36.0611C36.782 36.1155 36.8962 36.1842 36.9968 36.267C37.0986 36.3499 37.1791 36.4499 37.2383 36.5671C37.2975 36.6843 37.3271 36.8216 37.3271 36.979C37.3271 37.1921 37.2726 37.3797 37.1637 37.5419C37.0548 37.7029 36.8974 37.829 36.6914 37.9201C36.4866 38.0101 36.2386 38.055 35.9474 38.055C35.6645 38.055 35.4189 38.0112 35.2106 37.9237C35.0034 37.8361 34.8413 37.7082 34.7241 37.5401C34.6081 37.372 34.5453 37.1673 34.5359 36.9258H35.1839C35.1934 37.0524 35.2325 37.1578 35.3011 37.2418C35.3698 37.3259 35.4592 37.3886 35.5692 37.43C35.6805 37.4715 35.8048 37.4922 35.9421 37.4922C36.0853 37.4922 36.2108 37.4709 36.3185 37.4283C36.4274 37.3845 36.5127 37.3241 36.5742 37.2472C36.6358 37.169 36.6671 37.0779 36.6683 36.9737C36.6671 36.879 36.6393 36.8009 36.5849 36.7393C36.5304 36.6766 36.4541 36.6245 36.3558 36.5831C36.2588 36.5405 36.1451 36.5026 36.0149 36.4695L35.6012 36.3629C35.3017 36.286 35.065 36.1694 34.891 36.0131C34.7182 35.8557 34.6317 35.6468 34.6317 35.3864C34.6317 35.1721 34.6897 34.9845 34.8058 34.8235C34.9229 34.6625 35.0821 34.5376 35.2834 34.4489C35.4846 34.3589 35.7125 34.3139 35.967 34.3139C36.225 34.3139 36.4511 34.3589 36.6452 34.4489C36.8406 34.5376 36.9938 34.6613 37.1051 34.82C37.2164 34.9774 37.2738 35.1585 37.2773 35.3633H36.6435Z" fill="#050033"/>
</svg>
